<?xml version="1.0" encoding="UTF-8" standalone="no"?>
<!-- Uploaded to: SVG Repo, www.svgrepo.com, Generator: SVG Repo Mixer Tools -->

<svg
   width="800px"
   height="800px"
   viewBox="0 0 48 48"
   version="1.1"
   id="svg18"
   sodipodi:docname="regex-icon.svg"
   inkscape:version="1.1.2 (0a00cf5339, 2022-02-04)"
   xmlns:inkscape="http://www.inkscape.org/namespaces/inkscape"
   xmlns:sodipodi="http://sodipodi.sourceforge.net/DTD/sodipodi-0.dtd"
   xmlns="http://www.w3.org/2000/svg"
   xmlns:svg="http://www.w3.org/2000/svg">
  <sodipodi:namedview
     id="namedview20"
     pagecolor="#ffffff"
     bordercolor="#666666"
     borderopacity="1.0"
     inkscape:pageshadow="2"
     inkscape:pageopacity="0.0"
     inkscape:pagecheckerboard="0"
     showgrid="false"
     inkscape:zoom="0.97375"
     inkscape:cx="399.48652"
     inkscape:cy="400"
     inkscape:window-width="1588"
     inkscape:window-height="991"
     inkscape:window-x="26"
     inkscape:window-y="23"
     inkscape:window-maximized="0"
     inkscape:current-layer="svg18" />
  <defs
     id="defs4">
    <style
       id="style2">.a{fill:none;stroke:#000000;stroke-linecap:round;stroke-linejoin:round;}</style>
  </defs>
  <path
     class="a"
     d="M15.88,8.4H6.5a2,2,0,0,0-2,2V37.6a2,2,0,0,0,2,2h9.38"
     id="path6" />
  <path
     class="a"
     d="M32.12,39.6H41.5a2,2,0,0,0,2-2V10.4a2,2,0,0,0-2-2H32.12"
     id="path8" />
  <line
     class="a"
     x1="28.34"
     y1="30.45"
     x2="28.34"
     y2="14.79"
     id="line10" />
  <line
     class="a"
     x1="21.56"
     y1="26.54"
     x2="35.12"
     y2="18.71"
     id="line12" />
  <line
     class="a"
     x1="35.12"
     y1="26.54"
     x2="21.56"
     y2="18.71"
     id="line14" />
  <circle
     class="a"
     cx="15.33"
     cy="30.45"
     r="2.5"
     id="circle16" />
  <path
     style="fill:#00ff00;stroke-width:1.02696"
     d="M 97.23686,666.9452 C 82.622518,663.01233 70.6304,650.1218 67.393457,634.86601 c -1.64416,-7.74896 -1.64416,-461.98306 0,-469.73202 2.343308,-11.04407 10.456746,-22.44794 19.91407,-27.9903 9.754773,-5.71668 9.348866,-5.69311 98.045583,-5.69311 89.13722,0 85.05514,-0.26707 87.32893,5.71347 1.20422,3.16734 -0.58888,8.31831 -3.47041,9.96931 -1.67122,0.95754 -22.29149,1.3859 -85.46755,1.7755 l -83.26491,0.51348 -5.026299,3.10802 c -3.114694,1.92597 -6.208348,5.01993 -8.134323,8.13512 l -3.108022,5.02711 V 400 634.30741 l 3.108022,5.0271 c 1.925975,3.11519 5.019629,6.20916 8.134323,8.13513 l 5.026299,3.10802 83.26491,0.51348 c 63.17606,0.3896 83.79633,0.81796 85.46755,1.7755 2.88153,1.651 4.67463,6.80197 3.47041,9.9693 -2.27606,5.98652 1.87417,5.71964 -87.80143,5.6459 -67.89053,-0.0559 -83.13431,-0.32309 -87.64375,-1.53664 z"
     id="path355"
     transform="scale(0.06)" />
  <path
     style="fill:#00ff00;stroke-width:1.02696"
     d="m 530.5873,666.90536 c -4.84862,-3.39612 -4.73671,-11.20957 0.20108,-14.03872 1.67122,-0.95754 22.29148,-1.3859 85.46754,-1.7755 l 83.2649,-0.51348 5.02631,-3.10802 c 3.11469,-1.92597 6.20835,-5.01994 8.13432,-8.13513 l 3.10802,-5.0271 V 400 165.69259 l -3.10802,-5.02711 c -1.92597,-3.11519 -5.01963,-6.20915 -8.13432,-8.13512 l -5.02631,-3.10802 -83.2649,-0.51348 c -63.17606,-0.3896 -83.79632,-0.81796 -85.46754,-1.7755 -2.88154,-1.651 -4.67465,-6.80197 -3.47043,-9.96931 2.2738,-5.98054 -1.80828,-5.71347 87.32894,-5.71347 88.69672,0 88.2908,-0.0236 98.04559,5.69311 9.45731,5.54236 17.57076,16.94623 19.91406,27.9903 1.64416,7.74896 1.64416,461.98306 0,469.73202 -2.3433,11.04407 -10.45675,22.44794 -19.91406,27.99031 -9.75479,5.71667 -9.34887,5.6931 -98.04559,5.6931 -73.26032,0 -81.95514,-0.17005 -84.05959,-1.64406 z"
     id="path394"
     transform="scale(0.06)" />
  <path
     style="fill:#00ff00;stroke-width:1.02696"
     d="m 470.1971,515.77293 c -1.21187,-0.19521 -3.06039,-1.30164 -4.10783,-2.45871 -1.79544,-1.98339 -1.9338,-5.50701 -2.4179,-61.57603 l -0.51348,-59.47226 -47.24005,27.3135 c -54.16073,31.31494 -54.05085,31.25497 -57.27507,31.25497 -5.39141,0 -9.4872,-7.40189 -6.77974,-12.25233 1.02794,-1.84157 16.74047,-11.45912 52.01927,-31.84069 27.80055,-16.06117 50.52837,-29.46297 50.50626,-29.78177 -0.0221,-0.3188 -22.46128,-13.47924 -49.86483,-29.24542 -27.40355,-15.76618 -50.72308,-29.80797 -51.82117,-31.20396 -2.66075,-3.3826 -2.5182,-6.67496 0.43778,-10.1115 4.64605,-5.40135 5.20464,-5.1558 58.66967,25.79084 27.11168,15.69279 49.87163,28.7544 50.57767,29.0258 1.01781,0.39126 1.28369,-11.76932 1.28369,-58.71315 V 243.2956 l 2.52072,-2.52071 c 2.48062,-2.48062 6.69768,-3.25371 10.27025,-1.88279 4.56298,1.75098 4.66731,3.19325 4.66731,64.52288 0,31.94076 0.25205,58.07411 0.56012,58.07411 0.30805,0 23.068,-13.0202 50.57766,-28.93378 54.26482,-31.39071 54.719,-31.59072 59.39325,-26.15658 2.94396,3.42255 3.09982,6.72726 0.47469,10.06457 -1.07779,1.37019 -24.40487,15.41197 -51.83796,31.20397 -27.43309,15.79199 -49.88888,28.99115 -49.90174,29.33149 -0.0128,0.34032 22.27442,13.44706 49.52731,29.12608 27.25289,15.67901 50.5905,29.63685 51.86136,31.01742 1.27086,1.38058 2.31065,3.67525 2.31065,5.09927 0,3.37098 -5.20994,8.59287 -8.5732,8.59287 -1.495,0 -23.75167,-12.22626 -53.22406,-29.23756 l -50.6546,-29.23758 -0.51348,59.37578 c -0.4047,46.79804 -0.79804,59.7185 -1.85679,60.99359 -1.66967,2.01083 -6.15388,3.51497 -9.07576,3.0443 z"
     id="path433"
     transform="scale(0.06)" />
  <path
     style="fill:#00ff00;stroke-width:1.02696"
     d="m 242.99084,556.01484 c -22.28696,-5.99371 -37.47912,-25.77952 -37.39167,-48.69777 0.052,-13.62608 4.20759,-24.14912 13.46785,-34.10412 19.31005,-20.75876 51.72091,-21.12144 72.06213,-0.80638 5.98015,5.97246 11.45657,15.7132 13.2762,23.61397 2.55006,11.07224 0.63383,25.14202 -4.8149,35.35316 -3.56801,6.6866 -13.64825,16.76684 -20.33485,20.33485 -10.75765,5.74035 -24.75287,7.40223 -36.26476,4.30629 z m 26.78567,-18.73393 c 11.29004,-5.53654 17.53882,-15.39379 18.11927,-28.58257 0.32462,-7.3758 0.0336,-9.12118 -2.43926,-14.63155 -3.22413,-7.18432 -9.54526,-13.56221 -16.72669,-16.87689 -7.36786,-3.40073 -20.38694,-3.09371 -27.6172,0.65127 -7.08852,3.67157 -12.28167,9.01954 -15.57238,16.03664 -2.24346,4.78393 -2.67386,7.10202 -2.59062,13.95274 0.10831,8.91464 1.34449,12.68082 6.48233,19.74914 3.45782,4.75705 9.13444,8.93034 15.1921,11.16881 6.02152,2.22511 19.18904,1.45681 25.15245,-1.46759 z"
     id="path472"
     transform="scale(0.06)" />
</svg>
